<svg width="317" height="72" viewBox="0 0 317 72" fill="none" xmlns="http://www.w3.org/2000/svg">
<path d="M315.727 10.5478V17.7707H291.307V10.5478H315.727ZM297.67 0H306.785V41.5605C306.785 43.1274 307.024 44.3217 307.501 45.1433C307.979 45.9459 308.6 46.4904 309.364 46.7771C310.148 47.0637 310.989 47.207 311.887 47.207C312.575 47.207 313.177 47.1592 313.692 47.0637C314.208 46.9682 314.61 46.8917 314.896 46.8344L316.53 54.2006C315.995 54.3917 315.25 54.5924 314.294 54.8025C313.358 55.0127 312.192 55.1369 310.798 55.1752C308.428 55.2134 306.25 54.8121 304.263 53.9713C302.275 53.1115 300.68 51.793 299.476 50.0159C298.272 48.2389 297.67 46.0032 297.67 43.3089V0Z" fill="#0000FF"/>
<path d="M260.456 10.5478L269.943 27.4013L279.488 10.5478H289.348L275.762 32.5605L289.491 54.5732H279.688L269.943 38.293L260.255 54.5732H250.367L263.981 32.5605L250.567 10.5478H260.456Z" fill="#0000FF"/>
<path d="M247.225 10.5478V17.7707H222.805V10.5478H247.225ZM229.168 0H238.282V41.5605C238.282 43.1274 238.521 44.3217 238.999 45.1433C239.477 45.9459 240.098 46.4904 240.862 46.7771C241.646 47.0637 242.486 47.207 243.384 47.207C244.072 47.207 244.674 47.1592 245.19 47.0637C245.706 46.9682 246.107 46.8917 246.394 46.8344L248.028 54.2006C247.493 54.3917 246.747 54.5924 245.792 54.8025C244.856 55.0127 243.69 55.1369 242.295 55.1752C239.926 55.2134 237.747 54.8121 235.76 53.9713C233.773 53.1115 232.177 51.793 230.974 50.0159C229.77 48.2389 229.168 46.0032 229.168 43.3089V0Z" fill="#0000FF"/>
<path d="M212.333 55.1465C210.708 55.1465 209.314 54.5732 208.148 53.4267C206.982 52.2611 206.409 50.8662 206.428 49.242C206.409 47.6369 206.982 46.2611 208.148 45.1146C209.314 43.949 210.708 43.3662 212.333 43.3662C213.919 43.3662 215.294 43.949 216.46 45.1146C217.626 46.2611 218.218 47.6369 218.237 49.242C218.218 50.3312 217.931 51.3248 217.377 52.2229C216.842 53.1019 216.135 53.8089 215.256 54.3439C214.377 54.879 213.403 55.1465 212.333 55.1465Z" fill="#0000FF"/>
<path d="M179.611 55.4618C175.427 55.4618 171.786 54.5159 168.691 52.6242C165.595 50.7325 163.188 48.086 161.468 44.6847C159.767 41.2643 158.917 37.2898 158.917 32.7611C158.917 28.1943 159.767 24.2006 161.468 20.7803C163.188 17.3599 165.595 14.7038 168.691 12.8121C171.786 10.9204 175.427 9.97453 179.611 9.97453C183.796 9.97453 187.436 10.9204 190.532 12.8121C193.627 14.7038 196.025 17.3599 197.726 20.7803C199.446 24.2006 200.306 28.1943 200.306 32.7611C200.306 37.2898 199.446 41.2643 197.726 44.6847C196.025 48.086 193.627 50.7325 190.532 52.6242C187.436 54.5159 183.796 55.4618 179.611 55.4618ZM179.64 47.9236C182.239 47.9236 184.379 47.2357 186.06 45.8599C187.761 44.4841 189.022 42.6497 189.844 40.3567C190.685 38.0446 191.105 35.5032 191.105 32.7325C191.105 29.9427 190.685 27.4013 189.844 25.1083C189.022 22.7962 187.761 20.9427 186.06 19.5478C184.379 18.1529 182.239 17.4554 179.64 17.4554C177.041 17.4554 174.892 18.1529 173.191 19.5478C171.49 20.9427 170.22 22.7962 169.379 25.1083C168.557 27.4013 168.146 29.9427 168.146 32.7325C168.146 35.5032 168.557 38.0446 169.379 40.3567C170.22 42.6497 171.49 44.4841 173.191 45.8599C174.892 47.2357 177.041 47.9236 179.64 47.9236Z" fill="#0000FF"/>
<path d="M132.702 72C129.148 72 126.091 71.5318 123.53 70.5955C120.97 69.6592 118.887 68.4076 117.282 66.8408C115.696 65.2739 114.53 63.5541 113.785 61.6815L121.753 58.8726C122.231 59.7134 122.9 60.5924 123.759 61.5096C124.619 62.4268 125.775 63.2006 127.228 63.8312C128.68 64.4809 130.552 64.8057 132.845 64.8057C135.998 64.8057 138.607 64.0414 140.67 62.5127C142.734 60.9841 143.766 58.5287 143.766 55.1465V46.5764H143.221C142.705 47.5701 141.951 48.6401 140.957 49.7866C139.982 50.914 138.654 51.8885 136.973 52.7102C135.291 53.5127 133.132 53.914 130.495 53.914C127.056 53.914 123.951 53.1019 121.18 51.4777C118.409 49.8535 116.212 47.4459 114.588 44.2548C112.963 41.0637 112.151 37.1083 112.151 32.3885C112.151 27.6688 112.954 23.6369 114.559 20.293C116.164 16.949 118.352 14.3981 121.123 12.6401C123.912 10.8631 127.056 9.97453 130.552 9.97453C133.247 9.97453 135.425 10.4236 137.088 11.3217C138.769 12.2197 140.088 13.2707 141.043 14.4745C142.017 15.6783 142.763 16.758 143.279 17.7134H143.88V10.5478H152.823V55.4904C152.823 59.2548 151.935 62.3503 150.158 64.7771C148.4 67.2229 146.002 69.0382 142.963 70.2229C139.944 71.4076 136.524 72 132.702 72ZM132.702 46.4904C135.091 46.4904 137.107 45.9268 138.75 44.7994C140.412 43.672 141.673 42.0478 142.533 39.9268C143.412 37.8057 143.852 35.2643 143.852 32.3026C143.852 29.3981 143.422 26.8471 142.562 24.6497C141.702 22.4331 140.441 20.7134 138.779 19.4904C137.135 18.2484 135.11 17.6274 132.702 17.6274C130.199 17.6274 128.107 18.2771 126.425 19.5764C124.763 20.8567 123.511 22.6051 122.67 24.8217C121.83 27.0382 121.409 29.5319 121.409 32.3026C121.409 35.1306 121.83 37.6147 122.67 39.7548C123.53 41.8758 124.791 43.5287 126.454 44.7134C128.135 45.8981 130.218 46.4904 132.702 46.4904Z" fill="#0000FF"/>
<path d="M87.6346 54.5732V10.5478H96.4626V17.656H96.9212C97.7238 15.2293 99.1282 13.328 101.135 11.9522C103.16 10.5764 105.453 9.88853 108.014 9.88853C108.549 9.88853 109.179 9.90764 109.905 9.94585C110.651 9.98407 111.243 10.0414 111.682 10.1178V18.7452C111.3 18.6306 110.66 18.5064 109.762 18.3726C108.864 18.2388 107.975 18.172 107.096 18.172C105.109 18.172 103.332 18.5923 101.765 19.4331C100.217 20.2739 98.9945 21.4395 98.0964 22.9299C97.1983 24.4013 96.7492 26.0923 96.7492 28.0032V54.5732H87.6346Z" fill="#0000FF"/>
<path d="M57.5358 55.5191C54.746 55.5191 52.2237 55.0127 49.9689 54C47.7333 52.9682 45.9562 51.4586 44.6377 49.4713C43.3384 47.4841 42.6887 45.0478 42.6887 42.1624C42.6887 39.6783 43.1664 37.6338 44.1218 36.0287C45.0772 34.4045 46.3575 33.1242 47.9626 32.1879C49.5677 31.2325 51.3734 30.5159 53.3798 30.0382C55.3861 29.5414 57.4403 29.1783 59.5422 28.949C62.16 28.6433 64.2811 28.3854 65.9053 28.1752C67.5295 27.965 68.7142 27.6306 69.4594 27.172C70.2237 26.7134 70.6059 25.9777 70.6059 24.965V24.7643C70.6059 22.3758 69.918 20.5223 68.5422 19.2038C67.1664 17.8854 65.1505 17.2261 62.4944 17.2261C59.7237 17.2261 57.5358 17.8376 55.9307 19.0605C54.3256 20.2643 53.2174 21.6401 52.6059 23.1879L44.0645 21.4968C44.9626 18.8217 46.3193 16.6338 48.1346 14.9331C49.9498 13.2325 52.0804 11.9809 54.5263 11.1783C56.9912 10.3758 59.6091 9.97453 62.3798 9.97453C64.2524 9.97453 66.1919 10.1943 68.1982 10.6338C70.2237 11.0732 72.1059 11.8471 73.8447 12.9554C75.5836 14.0446 76.9976 15.5924 78.0868 17.5987C79.176 19.586 79.7205 22.1465 79.7205 25.2803V54.5732H70.8639V48.5541H70.5199C69.9467 49.6815 69.0963 50.7803 67.9689 51.8503C66.8607 52.9204 65.4371 53.7994 63.6983 54.4873C61.9785 55.1752 59.9244 55.5191 57.5358 55.5191ZM59.6282 48.4395C61.9212 48.4395 63.8893 47.9904 65.5326 47.0924C67.176 46.1752 68.4371 44.9809 69.3161 43.5096C70.1951 42.0191 70.6346 40.4236 70.6346 38.7229V33.1911C70.3097 33.4968 69.7269 33.7739 68.8861 34.0223C68.0454 34.2516 67.09 34.4618 66.0199 34.6529C64.9689 34.8248 63.9275 34.9873 62.8957 35.1401C61.883 35.2739 61.0231 35.3885 60.3161 35.4841C58.711 35.6943 57.2397 36.0478 55.9021 36.5446C54.5836 37.0223 53.5326 37.7197 52.7492 38.6369C51.9658 39.535 51.574 40.7197 51.574 42.1911C51.574 44.2357 52.3288 45.793 53.8384 46.8631C55.367 47.914 57.297 48.4395 59.6282 48.4395Z" fill="#0000FF"/>
<path d="M20.6943 55.4618C16.414 55.4618 12.7261 54.4968 9.63057 52.5669C6.53503 50.6178 4.15605 47.9427 2.49363 44.5414C0.83121 41.121 0 37.1943 0 32.7611C0 28.2707 0.850319 24.3153 2.55096 20.8949C4.25159 17.4745 6.64013 14.7994 9.71656 12.8694C12.8121 10.9395 16.4427 9.97453 20.6083 9.97453C24.0287 9.97453 27.0669 10.6051 29.7229 11.8662C32.3981 13.1083 34.5478 14.8662 36.172 17.1401C37.7962 19.3949 38.7516 22.0414 39.0382 25.0796H30.2102C29.7707 22.9968 28.7484 21.2197 27.1433 19.7484C25.5573 18.2771 23.4267 17.5414 20.7516 17.5414C18.4586 17.5414 16.4427 18.1529 14.7038 19.3758C12.965 20.5796 11.6178 22.3089 10.6624 24.5637C9.70701 26.7994 9.2293 29.465 9.2293 32.5605C9.2293 35.6943 9.69745 38.4076 10.6338 40.7006C11.5892 42.9745 12.9268 44.7325 14.6465 45.9745C16.3854 47.2166 18.4204 47.8376 20.7516 47.8376C22.3567 47.8376 23.8089 47.5414 25.1083 46.949C26.4076 46.3567 27.4968 45.4968 28.3758 44.3694C29.2548 43.242 29.8662 41.8853 30.2102 40.2994H39.0382C38.7325 43.242 37.7962 45.8503 36.2293 48.1242C34.6815 50.3981 32.5892 52.1943 29.9522 53.5127C27.3153 54.8121 24.2293 55.4618 20.6943 55.4618Z" fill="#0000FF"/>
</svg>
